# AST/ASF file generated using VICON BodyLanguage
# -----------------------------------------------
:version 1.10
:name VICON
:units
  mass 1.0
  length 0.45
  angle deg
:documentation
   .ast/.asf automatically generated from VICON data using
   VICON BodyBuilder and BodyLanguage model FoxedUp or BRILLIANT.MOD
:root
   order TX TY TZ RX RY RZ
   axis XYZ
   position 0 0 0  
   orientation 0 0 0 
:bonedata
  begin
     id 1 
     name lhipjoint
     direction 0.588788 -0.725889 0.355548 
     length 2.37778 
     axis 0 0 0  XYZ
  end
  begin
     id 2 
     name lfemur
     direction 0.34202 -0.939693 0  
     length 6.86393  
     axis 0 0 20  XYZ
    dof rx ry rz
    limits (-160.0 20.0)
           (-70.0 70.0)
           (-60.0 70.0)
  end
  begin
     id 3 
     name ltibia
     direction 0.34202 -0.939693 0   
     length 7.32851   
     axis 0 0 20   XYZ
    dof rx
    limits (-10.0 170.0)
  end
  begin
     id 4 
     name lfoot
     direction 0.0626533 -0.172138 0.983078   
     length 1.98929   
     axis -90 7.62852e-016 20   XYZ
    dof rx rz
    limits (-45.0 90.0)
           (-70.0 20.0)
  end
  begin
     id 5 
     name ltoes
     direction 1.53647e-011 -4.21734e-011 1   
     length 1.00479   
     axis -90 7.62852e-016 20   XYZ
    dof rx
    limits (-90.0 20.0)
  end
  begin
     id 6 
     name rhipjoint
     direction -0.59141 -0.724168 0.354705   
     length 2.38343  
     axis 0 0 0  XYZ 
  end
  begin
     id 7 
     name rfemur
     direction -0.34202 -0.939693 0   
     length 6.95589   
     axis 0 0 -20   XYZ
    dof rx ry rz
    limits (-160.0 20.0)
           (-70.0 70.0)
           (-70.0 60.0)
  end
  begin
     id 8 
     name rtibia
     direction -0.34202 -0.939693 0   
     length 7.32327   
     axis 0 0 -20   XYZ
    dof rx
    limits (-10.0 170.0)
 end
 begin
     id 9 
     name rfoot
     direction -0.0660461 -0.18146 0.981178   
     length 1.85272  
     axis -90 -7.62852e-016 -20   XYZ
    dof rx rz
    limits (-45.0 90.0)
           (-20.0 70.0)
  end
  begin
     id 10 
     name rtoes
     direction -1.53586e-011 -4.21988e-011 1   
     length 0.93746   
     axis -90 -7.62852e-016 -20   XYZ
    dof rx
    limits (-90.0 20.0)
  end
  begin
     id 11 
     name lowerback
     direction -0.0107982 0.991059 0.13299   
     length 1.98691   
     axis 0 0 0   XYZ
    dof rx ry rz
    limits (-20.0 45.0)
           (-30.0 30.0)
           (-30.0 30.0)
  end
  begin
     id 12 
     name upperback
     direction 0.0076296 0.999916 0.0104576   
     length 1.99501   
     axis 0 0 0   XYZ
    dof rx ry rz
    limits (-20.0 45.0)
           (-30.0 30.0)
           (-30.0 30.0)
  end
  begin
     id 13 
     name thorax
     direction 0.01176 0.998615 -0.0512909   
     length 2.03144   
     axis 0 0 0   XYZ
    dof rx ry rz
    limits (-20.0 45.0)
           (-30.0 30.0)
           (-30.0 30.0)
  end
  begin
     id 14 
     name lowerneck
     direction -0.0171909 0.999644 0.0204011   
     length 1.71818   
     axis 0 0 0   XYZ
    dof rx ry rz
    limits (-20.0 45.0)
           (-30.0 30.0)
           (-30.0 30.0)
  end
  begin
     id 15 
     name upperneck
     direction 0.0250902 0.997482 -0.0663316   
     length 1.66199   
     axis 0 0 0   XYZ
    dof rx ry rz
    limits (-20.0 45.0)
           (-30.0 30.0)
           (-30.0 30.0)
  end
  begin
     id 16
     name head
     direction 0.00881535 0.99956 -0.0283365  
     length 1.81545  
     axis 0 0 0   XYZ
    dof rx ry rz
    limits (-20.0 45.0)
           (-30.0 30.0)
           (-30.0 30.0)
  end
  begin
     id 17 
     name lclavicle
     direction 0.840411 0.486876 -0.238035  
     length 3.30409  
     axis 0 0 0   XYZ
    dof ry rz
    limits (-20.0 10.0)
           (0.0 20.0)
  end
  begin
     id 18 
     name lhumerus
     direction 1 -4.48977e-011 -5.16239e-027   
     length 4.62672   
     axis 180 -30 -90   XYZ
    dof rx ry rz
    limits (-60.0 90.0)
           (-90.0 90.0)
           (-90.0 90.0)
  end
  begin
     id 19
     name lradius
     direction 1 -4.48977e-011 -8.71171e-027   
     length 3.11018   
     axis 180 -30 -90   XYZ
    dof rx
    limits (-10.0 170.0)
  end
  begin
     id 20
     name lwrist
     direction 1 -4.48912e-011 -1.03764e-026   
     length 1.55509   
     axis 9.09556e-015 90 90   XYZ
    dof ry
    limits (-180.0 0.0)
 end
  begin
     id 21 
     name lhand
     direction 1 -4.49072e-011 -2.07528e-026   
     length 0.743834   
     axis 1.3242e-014 90 90   XYZ
    dof rx rz
    limits (-90.0 90.0)
           (-45.0 45.0)
  end
  begin
     id 22 
     name lfingers
     direction 1 -4.48909e-011 -4.15056e-026   
     length 0.599698   
     axis 2.64841e-014 90 90   XYZ
    dof rx
    limits (0.0 90.0)
  end
  begin
     id 23
     name lthumb
     direction 0.707107 -6.35013e-011 0.707107   
     length 0.86105   
     axis -90 45 2.85299e-015   XYZ
    dof rx rz
    limits (-45.0 45.0)
           (-45.0 45.0)
  end
  begin
     id 24 
     name rclavicle
     direction -0.835208 0.500237 -0.228452   
     length 3.2716  
     axis 0 0 0   XYZ 
    dof ry rz
    limits (-10.0 20.0)
           (-20.0 0.0)
  end
  begin
     id 25 
     name rhumerus
     direction -1 -4.48978e-011 -5.1953e-028  
     length 4.55919   
     axis 180 30 90   XYZ
    dof rx ry rz
    limits (-90.0 60.0)
           (-90.0 90.0)
           (-90.0 90.0)
  end
  begin
     id 26 
     name rradius
     direction -1 -4.48961e-011 -5.99546e-027   
     length 3.22748   
     axis 180 30 90   XYZ
    dof rx
    limits (-10.0 170.0)
  end
  begin
     id 27 
     name rwrist
     direction -1 -4.48986e-011 -1.03764e-026   
     length 1.61374   
     axis 9.09556e-015 -90 -90   XYZ
    dof ry
    limits (-180.0 0.0)
  end
  begin
     id 28
     name rhand
     direction -1 -4.4899e-011 -2.07528e-026   
     length 0.700882   
     axis 1.3242e-014 -90 -90   XYZ
    dof rx rz
    limits (-90.0 90.0)
           (-45.0 45.0)
  end
  begin
     id 29
     name rfingers
     direction -1 -4.48991e-011 -4.15056e-026   
     length 0.565069   
     axis 2.64841e-014 -90 -90   XYZ
    dof rx
    limits (0.0 90.0)
  end
  begin
     id 30
     name rthumb
     direction -0.707107 -6.34804e-011 0.707107   
     length 0.811329   
     axis -90 -45 -2.85299e-015   XYZ
    dof rx rz
    limits (-45.0 45.0)
           (-45.0 45.0)
  end
:hierarchy
  begin
    root lhipjoint rhipjoint lowerback
    lhipjoint lfemur
    lfemur ltibia
    ltibia lfoot
    lfoot ltoes
    rhipjoint rfemur
    rfemur rtibia
    rtibia rfoot
    rfoot rtoes
    lowerback upperback
    upperback thorax
    thorax lowerneck lclavicle rclavicle
    lowerneck upperneck
    upperneck head
    lclavicle lhumerus
    lhumerus lradius
    lradius lwrist
    lwrist lhand lthumb
    lhand lfingers
    rclavicle rhumerus
    rhumerus rradius
    rradius rwrist
    rwrist rhand rthumb
    rhand rfingers
  end

#!OML:ASF F:\VICON\USERDATA\INSTALL\SteveWalk\SteveWalk.ASF
:FULLY-SPECIFIED
:DEGREES
129
root -0.539698 16.4557 -13.9103 17.3198 4.40455 0.0724921
lowerback -15.3543 -1.0802 1.51517
upperback -5.51112 -1.72183 2.15006
thorax 2.78706 -0.847045 1.09754
lowerneck -4.45442 -1.36103 0.0363127
upperneck 11.3177 -1.61678 -1.98615
head 4.5174 -0.894307 -0.763055
rclavicle 4.42296e-015 7.95139e-016
rhumerus -40.3725 -26.7552 -68.7144
rradius 19.6626
rwrist 14.3588
rhand -17.2888 -34.8912
rfingers 7.12502
rthumb 8.95664 295.319
lclavicle 4.42296e-015 7.95139e-016
lhumerus -36.235 3.99598 85.9788
lradius 28.8111
lwrist 3.25436
lhand -21.1435 -18.8947
lfingers 7.12502
lthumb 5.2358 11.0206
rfemur -34.9542 -1.99208 24.2609
rtibia 37.2597
rfoot -20.8103 4.62558
rtoes -14.1802
lfemur -36.2756 3.14265 -20.0974
ltibia 71.7278
lfoot -4.43706 -0.481032
ltoes -9.14954
130
root -0.542669 16.4691 -13.7054 17.2158 4.27511 0.0619657
lowerback -15.2093 -0.941211 1.45844
upperback -5.5581 -1.52093 2.04744
thorax 2.65706 -0.748157 1.05958
lowerneck -4.19131 -1.45828 0.121694
upperneck 11.3643 -1.75504 -1.99306
head 4.47852 -0.958204 -0.784872
rclavicle 2.52829e-014 -1.82882e-014
rhumerus -38.8175 -24.1908 -71.3335
rradius 21.5669
rwrist 10.9217
rhand -16.9899 -35.4016
rfingers 7.12502
rthumb 9.24509 294.821
lclavicle 2.52829e-014 -1.82882e-014
lhumerus -37.1027 4.41897 85.5787
lradius 27.4833
lwrist 2.31962
lhand -21.0758 -19.5829
lfingers 7.12502
lthumb 5.30118 10.3308
rfemur -33.8844 -1.94032 24.2564
rtibia 36.9853
rfoot -21.3674 4.89421
rtoes -12.7587
lfemur -37.5239 3.32954 -20.3814
ltibia 71.0021
lfoot -5.88916 0.250937
ltoes -8.6142
131
root -0.548661 16.4775 -13.5033 17.1 4.26299 -0.0753984
lowerback -14.9626 -0.867222 1.48405
upperback -5.65053 -1.41785 2.0547
thorax 2.42682 -0.698112 1.07472
lowerneck -4.04146 -1.5199 0.133516
upperneck 11.5435 -1.831 -2.04922
head 4.51205 -0.997965 -0.81019
rclavicle -9.41742e-015 -3.97569e-015
rhumerus -37.5031 -21.4191 -73.6367
rradius 23.5394
rwrist 7.32208
rhand -17.1568 -35.9566
rfingers 7.12502
rthumb 9.08407 294.259
lclavicle -9.41742e-015 -3.97569e-015
lhumerus -37.9876 5.06218 85.1115
lradius 26.0214
lwrist 1.26961
lhand -20.8655 -19.4852
lfingers 7.12502
lthumb 5.50417 10.4233
rfemur -32.8774 -1.90469 24.4345
rtibia 36.7372
rfoot -21.7614 5.31709
rtoes -10.2519
lfemur -38.7752 3.51169 -20.4895
ltibia 70.1691
lfoot -7.07902 0.949184
ltoes -8.93895
132
root -0.550106 16.4799 -13.2979 17.0299 4.34469 -0.171293
lowerback -15.0287 -0.853911 1.49973
upperback -5.57761 -1.40723 2.08532
thorax 2.53907 -0.692017 1.09812
lowerneck -4.06797 -1.50491 0.0337704
upperneck 11.6029 -1.81097 -1.96322
head 4.54099 -0.988427 -0.763519
rclavicle 1.22253e-014 -1.51076e-014
rhumerus -35.93 -19.1915 -75.5011
rradius 25.1587
rwrist 4.17628
rhand -17.7269 -35.834
rfingers 7.12502
rthumb 8.53387 294.358
lclavicle 1.22253e-014 -1.51076e-014
lhumerus -38.5974 6.09598 84.4764
lradius 24.5227
lwrist -0.230268
lhand -20.1689 -18.0054
lfingers 7.12502
lthumb 6.17673 11.8845
rfemur -31.9316 -2.17843 24.6444
rtibia 36.5807
rfoot -22.2101 5.75675
rtoes -8.19702
lfemur -40.025 3.4885 -20.6103
ltibia 69.1966
lfoot -7.58646 1.71293
ltoes -6.62985
133
root -0.546706 16.4628 -13.0936 16.9703 4.35993 0.0501625
lowerback -15.1517 -0.835241 1.2562
upperback -5.43375 -1.35084 1.9824
thorax 2.75897 -0.661922 1.13442
lowerneck -4.25895 -1.51721 0.023628
upperneck 11.6831 -1.83008 -1.91356
head 4.60944 -0.996663 -0.749537
rclavicle 6.95746e-016 -3.18055e-015
rhumerus -34.4087 -17.6012 -76.8913
rradius 26.68
rwrist 1.68553
rhand -17.7044 -35.4716
rfingers 7.12502
rthumb 8.5556 294.722
lclavicle 6.95746e-016 -3.18055e-015
lhumerus -39.1233 7.25261 83.6573
lradius 23.1986
lwrist -2.31019
lhand -19.0576 -16.7816
lfingers 7.12502
lthumb 7.24956 13.0742
rfemur -30.9117 -2.67539 24.5193
rtibia 36.5009
rfoot -22.9852 5.84993
rtoes -8.07622
lfemur -41.2179 3.34586 -21.102
ltibia 68.1227
lfoot -8.16475 2.56071
ltoes -4.81074
134
root -0.548482 16.4434 -12.8898 16.9012 4.3219 0.289796
lowerback -15.091 -0.786036 0.922977
upperback -5.43708 -1.2311 1.84545
thorax 2.72588 -0.601134 1.2004
lowerneck -4.36249 -1.61655 0.181816
upperneck 11.9626 -1.95863 -2.04564
head 4.72904 -1.06086 -0.834727
rclavicle 1.09207e-014 -2.8625e-014
rhumerus -33.3359 -15.9564 -78.0656
rradius 28.3845
rwrist -0.692651
rhand -17.3461 -34.7771
rfingers 7.12502
rthumb 8.90136 295.431
lclavicle 1.09207e-014 -2.8625e-014
lhumerus -39.8344 8.46258 82.5736
lradius 21.6896
lwrist -4.76515
lhand -18.0826 -16.7184
lfingers 7.12502
lthumb 8.19059 13.1028
rfemur -29.9031 -3.03268 24.3513
rtibia 36.4423
rfoot -23.8168 5.7481
rtoes -8.89749
lfemur -42.3433 3.32677 -21.6263
ltibia 66.899
lfoot -8.59859 3.31077
ltoes -3.74245
135
root -0.554027 16.4298 -12.6826 16.937 4.39176 0.19356
lowerback -15.1199 -0.736386 0.889158
upperback -5.51904 -1.15799 1.82023
thorax 2.65412 -0.564505 1.20589
lowerneck -4.26107 -1.70796 0.245076
upperneck 12.1245 -2.08657 -2.03981
head 4.76563 -1.12069 -0.851705
rclavicle -1.55425e-014 1.35174e-014
rhumerus -32.3877 -14.2282 -79.0906
rradius 30.0523
rwrist -2.8525
rhand -17.7131 -34.3516
rfingers 7.12502
rthumb 8.54718 295.841
lclavicle -1.55425e-014 1.35174e-014
lhumerus -40.7034 9.81166 81.2626
lradius 20.2128
lwrist -7.25747
lhand -17.4751 -17.1334
lfingers 7.12502
lthumb 8.7769 12.6641
rfemur -29.007 -3.25542 24.5574
rtibia 36.3775
rfoot -24.7072 5.63648
rtoes -9.85911
lfemur -43.5699 3.35625 -21.7548
ltibia 65.4704
lfoot -9.09044 3.91232
ltoes -4.14416
136
root -0.553335 16.4235 -12.4775 17.0663 4.365 0.237191
lowerback -15.2828 -0.705457 0.788768
upperback -5.5244 -1.10395 1.78102
thorax 2.73559 -0.536923 1.22922
lowerneck -4.23201 -1.71273 0.0542082
upperneck 12.1324 -2.10203 -1.81995
head 4.7667 -1.1255 -0.743309
rclavicle 8.08805e-015 -1.90833e-014
rhumerus -31.1641 -12.428 -80.0295
rradius 31.523
rwrist -5.29135
rhand -18.4852 -33.8972
rfingers 7.12502
rthumb 7.80207 296.267
lclavicle 8.08805e-015 -1.90833e-014
lhumerus -41.5784 11.323 79.8765
lradius 19.022
lwrist -9.68994
lhand -16.9315 -17.1996
lfingers 7.12502
lthumb 9.30141 12.5752
rfemur -28.2057 -3.70368 24.6096
rtibia 36.2516
rfoot -25.5295 5.8121
rtoes -9.62278
lfemur -44.753 3.30178 -22.0393
ltibia 63.7709
lfoot -9.86836 4.31165
ltoes -3.97936
137
root -0.548611 16.4242 -12.2734 17.1463 4.11721 0.452671
lowerback -15.3009 -0.6571 0.501389
upperback -5.4756 -0.997948 1.72401
thorax 2.7988 -0.482905 1.34985
lowerneck -4.6205 -1.65638 -0.127472
upperneck 12.7861 -2.00114 -1.80231
head 4.57023 -1.09281 -0.638705
rclavicle 1.23557e-014 -1.43125e-014
rhumerus -29.9635 -10.4842 -80.8822
rradius 33.2272
rwrist -7.79685
rhand -17.6029 -34.4496
rfingers 7.12502
rthumb 8.65358 295.748
lclavicle 1.23557e-014 -1.43125e-014
lhumerus -42.4563 12.8457 78.5512
lradius 18.0764
lwrist -12.0863
lhand -16.2969 -16.4472
lfingers 7.12502
lthumb 9.91374 13.2993
rfemur -27.4442 -4.33375 24.444
rtibia 36.0546
rfoot -25.9888 6.77928
rtoes -8.32812
lfemur -45.6442 3.32628 -22.5671
ltibia 61.7688
lfoot -10.5091 4.64573
ltoes -3.15359
138
root -0.546821 16.4174 -12.0662 17.2351 3.87211 0.593894
lowerback -15.3115 -0.613619 0.254156
upperback -5.42719 -0.904686 1.68871
thorax 2.85665 -0.435588 1.46862
lowerneck -4.78793 -1.65318 -0.0935776
upperneck 12.7623 -1.98234 -1.93625
head 4.58947 -1.09023 -0.685944
rclavicle -2.48543e-014 1.51076e-014
rhumerus -28.9471 -8.46507 -81.6018
rradius 35.1268
rwrist -9.85686
rhand -16.133 -36.8786
rfingers 7.12502
rthumb 10.0719 293.382
lclavicle -2.48543e-014 1.51076e-014
lhumerus -43.4109 14.3414 77.1255
lradius 17.2673
lwrist -14.5184
lhand -15.7371 -15.5242
lfingers 7.12502
lthumb 10.4538 14.1959
rfemur -26.6011 -4.83117 24.3343
rtibia 35.7875
rfoot -26.5164 7.52991
rtoes -6.73137
lfemur -46.4221 3.37818 -22.9882
ltibia 59.5294
lfoot -10.6007 5.31775
ltoes -3.88409
139
root -0.546957 16.4016 -11.8622 17.3746 3.67091 0.647045
lowerback -15.3621 -0.536476 0.112951
upperback -5.45425 -0.78006 1.62608
thorax 2.85301 -0.373138 1.50441
lowerneck -4.53608 -1.69959 0.0331396
upperneck 12.0544 -2.06616 -1.94868
head 4.79962 -1.11611 -0.784902
rclavicle -7.60351e-015 2.14687e-014
rhumerus -28.0416 -6.45995 -82.2176
rradius 36.9186
rwrist -12.0519
rhand -15.7747 -37.5792
rfingers 7.12502
rthumb 10.4175 292.699
lclavicle -7.60351e-015 2.14687e-014
lhumerus -44.5969 15.977 75.2263
lradius 16.3695
lwrist -17.2969
lhand -15.3476 -15.3891
lfingers 7.12502
lthumb 10.8295 14.3117
rfemur -25.7339 -5.11568 24.3031
rtibia 35.4176
rfoot -27.0384 7.84671
rtoes -5.95133
lfemur -47.2396 3.34227 -23.2208
ltibia 57.1032
lfoot -10.5458 5.96351
ltoes -3.46157
140
root -0.542878 16.3919 -11.6598 17.4352 3.44219 0.548535
lowerback -15.2867 -0.378604 0.187643
upperback -5.52323 -0.578366 1.55867
thorax 2.73356 -0.273419 1.42701
lowerneck -4.41553 -1.72024 0.0102521
upperneck 12.0463 -2.10601 -1.83426
head 4.7728 -1.13029 -0.742075
rclavicle -7.29291e-015 -1.23246e-014
rhumerus -27.1609 -5.09853 -82.5143
rradius 38.5163
rwrist -13.1869
rhand -14.8022 -34.7553
rfingers 7.12502
rthumb 11.3556 295.572
lclavicle -7.29291e-015 -1.23246e-014
lhumerus -45.999 17.4256 73.1724
lradius 15.6317
lwrist -19.9416
lhand -15.1417 -16.0151
lfingers 7.12502
lthumb 11.0281 13.6752
rfemur -24.7571 -5.46782 24.4132
rtibia 34.9034
rfoot -27.2876 8.57381
rtoes -4.02704
lfemur -47.9121 3.34095 -23.2552
ltibia 54.4907
lfoot -10.8699 6.11596
ltoes -1.59102
141
root -0.533265 16.3878 -11.4504 17.4291 3.12654 0.386312
lowerback -15.37 -0.216217 0.356986
upperback -5.42758 -0.390209 1.51428
thorax 2.87276 -0.182071 1.31715
lowerneck -4.43 -1.69986 0.0135034
upperneck 11.9493 -2.08385 -1.7984
head 4.74049 -1.11706 -0.728104
rclavicle 1.15544e-015 -2.0276e-014
rhumerus -26.0437 -3.9388 -82.749
rradius 39.955
rwrist -13.8853
rhand -14.3571 -31.4414
rfingers 7.12502
rthumb 11.7848 298.91
lclavicle 1.15544e-015 -2.0276e-014
lhumerus -47.2397 18.6363 71.3737
lradius 15.1254
lwrist -21.9089
lhand -15.0001 -16.1071
lfingers 7.12502
lthumb 11.1647 13.5759
rfemur -23.6122 -5.92693 24.5233
rtibia 34.2575
rfoot -27.5741 9.51103
rtoes -2.091
lfemur -48.2999 3.4522 -23.242
ltibia 51.69
lfoot -11.2333 6.18752
ltoes -2.12138
142
root -0.524427 16.3811 -11.2367 17.4059 2.8582 0.327831
lowerback -15.4484 -0.134804 0.388188
upperback -5.33905 -0.289113 1.48162
thorax 3.00539 -0.132877 1.28307
lowerneck -4.24561 -1.67039 0.181853
upperneck 11.6731 -2.04528 -1.94934
head 4.5984 -1.09684 -0.800676
rclavicle -4.19311e-015 7.55382e-015
rhumerus -25.0269 -2.34275 -83.1099
rradius 41.501
rwrist -15.361
rhand -16.0065 -41.0828
rfingers 7.12502
rthumb 10.1939 289.184
lclavicle -4.19311e-015 7.55382e-015
lhumerus -48.548 20.0572 69.3457
lradius 14.4794
lwrist -23.9321
lhand -15.0143 -16.0639
lfingers 7.12502
lthumb 11.1509 13.6198
rfemur -22.3999 -6.35353 24.4933
rtibia 33.5257
rfoot -27.8414 10.285
rtoes -0.80477
lfemur -48.4957 3.49263 -23.2956
ltibia 48.672
lfoot -11.3047 6.39029
ltoes -3.1164
143
root -0.516925 16.3737 -11.0237 17.373 2.6053 0.393768
lowerback -15.3256 -0.0645269 0.319659
upperback -5.37225 -0.181576 1.40294
thorax 2.90278 -0.0795634 1.25789
lowerneck -4.14695 -1.61928 0.206069
upperneck 11.6458 -1.98177 -1.92442
head 4.56916 -1.06281 -0.791412
rclavicle 7.71533e-015 -2.90226e-014
rhumerus -24.2652 -1.00926 -83.2494
rradius 42.9909
rwrist -16.0915
rhand -15.7467 -37.9945
rfingers 7.12502
rthumb 10.4445 292.285
lclavicle 7.71533e-015 -2.90226e-014
lhumerus -50.1521 21.4199 67.0359
lradius 13.8932
lwrist -26.0181
lhand -14.9831 -16.1335
lfingers 7.12502
lthumb 11.1811 13.5486
rfemur -21.14 -6.7924 24.3225
rtibia 32.742
rfoot -27.94 10.9959
rtoes -0.169887
lfemur -48.6076 3.3736 -23.3894
ltibia 45.4607
lfoot -11.3986 6.69719
ltoes -3.25993
